<?xml version="1.0" encoding="utf-8"?>
<?xml-stylesheet type="text/xsl" href="rss1.xsl"?>
<rss version="2.0" xmlns:atom="http://www.w3.org/2005/Atom" xmlns:content="http://purl.org/rss/1.0/modules/content/" xmlns:dc="http://purl.org/dc/elements/1.1/" xmlns:media="http://search.yahoo.com/mrss/">
<channel>
 <title>Getty</title>
 <link>http://www.gettyimg.com/</link>
 <atom:link href="http://www.gettyimg.com/" rel="self" type="application/rss+xml" />

 
                <item>
                <title><![CDATA[【Apple Music】WEB-RiP - Cardi B &amp; Megan Thee Stallion - Bongos |Apple Music Web 4K|]]></title>
                <link><![CDATA[https://sharemania.us/threads/cardi-b-megan-thee-stallion-bongos-apple-music-web-4k.228826/]]></link>
                <description><![CDATA[<article>
<blockquote class="messageText SelectQuoteContainer ugc baseHtml">
<div style="text-align: center"><img src="https://i.imgur.com/5DoZ1eR.gif" class="bbCodeImage LbImage" alt="[​IMG]" data-url="https://i.imgur.com/5DoZ1eR.gif" style=""><br>
<img src="https://i.imgur.com/lFo3zvm.png" class="bbCodeImage LbImage" alt="[​IMG]" data-url="https://i.imgur.com/lFo3zvm.png" style=""><br>
<br>
​</div>
<div class="ToggleTriggerAnchor bbCodeSpoilerContainer">
<button type="button" class="button bbCodeSpoilerButton ToggleTrigger Tooltip JsOnly" data-target="> .SpoilerTarget"><span>Spoiler: <span class="SpoilerTitle">Apple Music</span></span></button>
<div class="SpoilerTarget bbCodeSpoilerText">
<div class="bbCodeBlock bbCodeCode">
<div class="type">Code:</div>
<pre>Format                                   : MPEG-4
Format profile                           : Base Media
Codec ID                                 : isom (isom/iso2/mp41)
File size                                : 257 MiB
Duration                                 : 2 min 59 s
Overall bit rate                         : 12.0 Mb/s
Movie name                               : Bongos
Performer                                : Cardi B &amp; Megan Thee Stallion
Genre                                    : Hip-Hop/Rap
ContentType                              : Music Video
Recorded date                            : 2023-09-08
ISRC                                     : USATV2303243
Rating                                   : Explicit

Video
ID                                       : 1
Format                                   : HEVC
Format/Info                              : High Efficiency Video Coding
Format profile                           : Main 10@L5@High
Codec ID                                 : hvc1
Codec ID/Info                            : High Efficiency Video Coding
Duration                                 : 2 min 59 s
Bit rate                                 : 11.7 Mb/s
Width                                    : 3 840 pixels
Height                                   : 2 160 pixels
Display aspect ratio                     : 16:9
Frame rate mode                          : Constant
Frame rate                               : 23.976 (24000/1001) FPS
Color space                              : YUV
Chroma subsampling                       : 4:2:0
Bit depth                                : 10 bits
Scan type                                : Progressive
Bits/(Pixel*Frame)                       : 0.059
Stream size                              : 251 MiB (98%)
Title                                    : Core Media Video
Color range                              : Limited
Color primaries                          : BT.709
Transfer characteristics                 : BT.709
Matrix coefficients                      : BT.709
Codec configuration box                  : hvcC

Audio
ID                                       : 2
Format                                   : AAC LC
Format/Info                              : Advanced Audio Codec Low Complexity
Codec ID                                 : mp4a-40-2
Duration                                 : 2 min 59 s
Bit rate mode                            : Constant
Bit rate                                 : 258 kb/s
Channel(s)                               : 2 channels
Channel layout                           : L R
Sampling rate                            : 48.0 kHz
Frame rate                               : 46.875 FPS (1024 SPF)
Compression mode                         : Lossy
Stream size                              : 5.52 MiB (2%)
Title                                    : Core Media Audio
Default                                  : Yes
Alternate group                          : 1
</pre>
</div><div style="text-align: center">​</div></div>
</div><div style="text-align: center"><br>
<br>
<div class="bbCodeBlock bbCodeVfcHH HiddenContent">
<div class="attribution type">Hidden Content:</div>
<blockquote>You must reply before you can see the hidden data contained here.</blockquote>
</div></div>
<div class="messageTextEndMarker">&nbsp;</div>
</blockquote>
</article>]]></description>
                <author><![CDATA[fstambuk]]></author>
                </item>

                
                <item>
                <title><![CDATA[【Unreleased/Unofficial (lossy)】MP3 - Lauryn Hill - Greatest Hits (2019) - FAN MADE]]></title>
                <link><![CDATA[https://sharemania.us/threads/lauryn-hill-greatest-hits-2019-fan-made.228827/]]></link>
                <description><![CDATA[<article>
<blockquote class="messageText SelectQuoteContainer ugc baseHtml">
<img src="https://blogger.googleusercontent.com/img/b/R29vZ2xl/AVvXsEjUeQid67KzL_nvKgT8-GEGJsealpXd3MNJQ1MslwGuYZLYgamZA9MRLENI9VOx9e5xX_I-2FMSOW-unZzvn1rbq-ZZq8YPvQQLmBT--Z-35VvVNa84RIg_af7dDWssekbn3RGuqldgCg6jL6SwFd_UfJrcZZnWdbL4bD1aVHGAONzqfULNWo2tdJzVsws/s500/Greatest%20Hits%20(Cover).jpg" class="bbCodeImage LbImage" alt="[​IMG]" data-url="https://blogger.googleusercontent.com/img/b/R29vZ2xl/AVvXsEjUeQid67KzL_nvKgT8-GEGJsealpXd3MNJQ1MslwGuYZLYgamZA9MRLENI9VOx9e5xX_I-2FMSOW-unZzvn1rbq-ZZq8YPvQQLmBT--Z-35VvVNa84RIg_af7dDWssekbn3RGuqldgCg6jL6SwFd_UfJrcZZnWdbL4bD1aVHGAONzqfULNWo2tdJzVsws/s500/Greatest%20Hits%20(Cover).jpg" style=""><br>
<br>
01 His Eye Is On The Sparrow (Live)<br>
02 The Sweetest Thing-feat Refugee Camp All-Stars<br>
03 Doo Wop (That Thing) (Radio Edit)<br>
04 Ex-Factor (Radio Edit)<br>
05 Lost Ones<br>
06 To Zion-feat Carlos Santana<br>
07 Forgive Them Father-feat Shelley Thunder<br>
08 Tell Him<br>
09 Everything Is Everything (Radio Edit)<br>
10 Can't Take My Eyes Off Of You<br>
11 When It Hurts So Bad<br>
12 The Miseducation Of Lauryn Hill<br>
13 Mystery Of Iniquity (Live)<br>
14 Selah<br>
15 Lose Myself<br>
16 Repercussions<br>
17 Neurotic Society (Compulsory Mix) <br>
18 Guarding The Gates (Radio Edit)<br>
<br>
<div class="bbCodeBlock bbCodeVfcHH HiddenContent">
<div class="attribution type">Hidden Content:</div>
<blockquote>You must either reply or click 'Like' to see the hidden information contained here.</blockquote>
</div>
<div class="messageTextEndMarker">&nbsp;</div>
</blockquote>
</article>]]></description>
                <author><![CDATA[Robert Forever]]></author>
                </item>

                </channel></rss>